<?xml version="1.0" standalone="no"?>
<!DOCTYPE svg PUBLIC "-//W3C//DTD SVG 20010904//EN"
 "http://www.w3.org/TR/2001/REC-SVG-20010904/DTD/svg10.dtd">
<svg version="1.0" xmlns="http://www.w3.org/2000/svg"
 width="700.000000pt" height="700.000000pt" viewBox="0 0 700.000000 700.000000"
 preserveAspectRatio="xMidYMid meet">
<metadata>
Created by potrace 1.14, written by Peter Selinger 2001-2017
</metadata>
<g transform="translate(0.000000,700.000000) scale(0.100000,-0.100000)"
fill="#000000" stroke="none">
<path d="M1169 6988 c0 -7 -1 -236 -1 -508 0 -536 4 -606 53 -805 60 -250 168
-474 328 -685 35 -47 67 -87 70 -90 4 -3 52 -59 107 -125 55 -66 109 -131 121
-145 37 -44 303 -361 377 -450 39 -47 73 -87 76 -90 5 -5 141 -168 170 -204 8
-10 20 -24 27 -30 24 -26 80 -123 96 -166 48 -132 38 -289 -25 -415 -16 -32
-130 -182 -183 -241 -19 -22 -84 -100 -206 -249 -67 -82 -125 -152 -129 -155
-3 -3 -19 -23 -35 -45 -17 -22 -33 -42 -36 -45 -4 -3 -55 -63 -114 -135 -59
-71 -126 -152 -148 -179 -23 -27 -49 -59 -57 -70 -8 -12 -23 -30 -33 -41 -86
-91 -223 -301 -290 -445 -66 -144 -137 -381 -151 -505 -3 -27 -9 -70 -12 -95
-7 -48 -12 -1036 -6 -1057 3 -10 479 -13 2336 -13 l2331 0 -1 507 c-1 280 -4
532 -8 562 -31 255 -84 440 -185 642 -80 161 -164 282 -361 519 -62 74 -129
155 -150 180 -21 25 -115 140 -210 255 -96 116 -205 248 -244 295 -39 47 -87
106 -108 130 -20 25 -52 64 -72 88 -110 133 -149 335 -96 493 18 52 72 155 90
169 4 3 51 59 106 125 55 66 109 131 121 145 25 30 98 117 122 145 9 11 66 79
126 151 61 72 128 153 150 179 22 27 45 53 50 59 6 6 44 52 85 101 41 50 77
92 80 95 3 3 25 30 50 60 25 30 47 57 50 60 19 17 114 159 159 236 87 153 184
404 207 540 2 16 9 53 14 82 19 105 23 243 24 707 l0 470 -2332 3 c-1862 2
-2332 0 -2333 -10z m4077 -948 c-17 -236 -77 -419 -201 -615 -27 -42 -143
-191 -180 -231 -5 -6 -19 -22 -30 -35 -173 -208 -222 -266 -232 -277 -7 -7
-29 -34 -50 -60 -21 -26 -42 -52 -48 -58 -5 -6 -28 -32 -50 -59 -22 -26 -44
-53 -50 -59 -5 -6 -32 -38 -60 -71 -57 -69 -48 -57 -197 -235 -143 -171 -177
-218 -226 -310 -42 -79 -96 -230 -106 -296 -4 -21 -10 -63 -15 -91 -11 -69 -6
-242 9 -323 17 -93 57 -214 97 -295 37 -73 108 -186 140 -220 10 -11 92 -110
183 -220 90 -110 216 -263 280 -340 345 -417 490 -596 527 -650 93 -139 152
-283 189 -459 10 -47 17 -125 18 -191 l1 -70 -150 0 -150 0 -47 88 c-99 185
-250 370 -509 623 -67 66 -126 124 -133 129 -6 6 -49 44 -96 86 -47 42 -143
124 -215 184 -172 142 -162 134 -230 185 -33 25 -66 51 -75 57 -63 52 -137
102 -145 99 -25 -9 -298 -222 -475 -371 -499 -418 -794 -745 -950 -1050 l-15
-30 -154 0 -153 -1 6 86 c8 126 30 253 53 310 3 8 8 24 10 35 11 58 137 288
199 364 7 9 41 50 75 91 33 41 69 84 78 95 73 91 107 131 111 135 3 3 24 28
45 55 22 28 42 52 45 55 3 3 68 82 145 175 76 94 153 186 169 205 17 20 47 55
66 80 51 64 182 222 203 245 10 11 38 49 62 85 129 195 193 408 189 630 -2
137 -12 202 -54 345 -21 69 -97 219 -146 286 -38 51 -384 470 -404 489 -3 3
-62 73 -130 155 -69 83 -127 152 -130 155 -3 3 -39 46 -80 95 -41 50 -79 95
-85 101 -5 7 -17 20 -25 30 -9 11 -42 51 -74 89 -74 90 -76 92 -114 147 -67
97 -150 288 -177 403 -27 117 -42 294 -27 304 6 4 795 7 1752 7 l1742 0 -6
-86z"/>
</g>
</svg>
